<svg width="67" height="67" viewBox="0 0 67 67" fill="none" xmlns="http://www.w3.org/2000/svg">
<rect width="67" height="67" fill="#040981"/>
<path d="M9.51914 12.9478V37.8516C9.51914 51.4091 20.2559 62.3971 33.4984 62.3971C46.741 62.3971 57.4777 51.4091 57.4777 37.8516V12.9611L33.3544 4.8441L9.51914 12.9478ZM33.3477 0L61.9734 9.6279V37.8516C61.9734 53.9484 49.2233 67 33.4984 67C17.7735 67 5.02344 53.9484 5.02344 37.8516V9.6279L33.3477 0ZM48.1513 21.7248C47.9327 21.5239 47.6758 21.3691 47.396 21.2697C47.1162 21.1703 46.8193 21.1282 46.5229 21.146C46.2265 21.1638 45.9368 21.2412 45.6709 21.3734C45.4051 21.5056 45.1686 21.6901 44.9755 21.9157L30.5169 38.5618L21.1771 28.2271C20.9797 28.0059 20.7397 27.8266 20.4716 27.7C20.2034 27.5734 19.9125 27.5021 19.6162 27.4902C19.3199 27.4783 19.0243 27.5262 18.7468 27.6309C18.4694 27.7356 18.2159 27.8951 18.0013 28.0998C17.5621 28.5196 17.3035 29.0939 17.2804 29.7011C17.2573 30.3083 17.4714 30.9006 17.8774 31.3526L28.8989 43.5466C29.1088 43.7826 29.3669 43.9709 29.6557 44.0988C29.9445 44.2267 30.2573 44.2912 30.5731 44.2881C30.889 44.2849 31.2005 44.2141 31.4866 44.0804C31.7728 43.9468 32.027 43.7533 32.2321 43.5131L48.3356 24.9742C48.733 24.5148 48.936 23.9187 48.9016 23.3122C48.8672 22.7057 48.5981 22.1363 48.1513 21.7248Z" fill="#DCFF06"/>
</svg>
